<?xml version="1.0" encoding="utf-8"?>
<!-- Generator: Adobe Illustrator 16.0.0, SVG Export Plug-In . SVG Version: 6.00 Build 0)  -->
<!DOCTYPE svg PUBLIC "-//W3C//DTD SVG 1.1//EN" "http://www.w3.org/Graphics/SVG/1.1/DTD/svg11.dtd">
<svg version="1.1" id="Layer_1" xmlns="http://www.w3.org/2000/svg" xmlns:xlink="http://www.w3.org/1999/xlink" x="0px" y="0px"
	 width="424.2695px" height="300.0137px" viewBox="-137.5034 0.0002 424.2695 300.0137"
	 enable-background="new -137.5034 0.0002 424.2695 300.0137" xml:space="preserve">
<g>
	<path fill="#FFFFFF" d="M77.895,181.5071c0.0049,0,0.0107,0,0.0176,0c1.0186,0,4.0557-0.041,8.5264-4.5117L263.2593,0.3538
		c-0.249-0.0078-0.4863,0.1533-0.7393,0.1533h-371.5723L67.6807,177.0676C69.0195,178.3108,73.5928,181.5071,77.895,181.5071z"/>
	<path fill="#FFFFFF" d="M-7.1064,148.6702L-136.521,19.8665c-0.2393,1.5396-0.9824,3.2012-0.9824,4.9907v250.5005
		c0,0,0.5996,0.8945,0.7705,2.3398L-7.1064,148.6702z"/>
	<g>
		<path fill="#FFFFFF" d="M286.4966,273.4709V24.8572c0,0,0.3691-0.75,0.2441-1.9507L161.3325,148.1213L286.4966,273.4709z"/>
		<path fill="#FFFFFF" d="M138.5796,171.427l-28.833,28.8926c-11.6963,11.6953-23.7754,14.1875-31.8516,14.1875
			c-0.002,0-0.002,0-0.0039,0c-18.7134,0-31.9565-12.7363-33.4028-14.1875L16.2021,172.01l-128.0918,128.2871
			c0.1045,0.002,0.2012,0.21,0.3062,0.21H262.52c0,0,1.7246-0.2188,4.2549-0.6738L138.5796,171.427z"/>
	</g>
</g>
</svg>
