<?xml version="1.0" encoding="utf-8"?>
<!-- Generator: Adobe Illustrator 16.0.0, SVG Export Plug-In . SVG Version: 6.00 Build 0)  -->
<!DOCTYPE svg PUBLIC "-//W3C//DTD SVG 1.1//EN" "http://www.w3.org/Graphics/SVG/1.1/DTD/svg11.dtd">
<svg version="1.1" id="Layer_1" xmlns="http://www.w3.org/2000/svg" xmlns:xlink="http://www.w3.org/1999/xlink" x="0px" y="0px"
	 width="424.055px" height="300px" viewBox="0.107 0 424.055 300" enable-background="new 0.107 0 424.055 300"
	 xml:space="preserve">
<g>
	<path fill="#FFFFFF" d="M215.396,181.062c0.005,0,0.012,0,0.019,0c1.02,0,4.055-0.041,8.521-4.51L400.668,0
		c-0.25-0.008-0.484,0.152-0.737,0.152H28.543l176.645,176.473C206.524,177.867,211.097,181.062,215.396,181.062z"/>
	<path fill="#FFFFFF" d="M130.438,148.241L1.089,19.503c-0.237,1.539-0.981,3.199-0.981,4.987v250.374c0,0,0.6,0.895,0.771,2.337
		L130.438,148.241z"/>
	<g>
		<path fill="#FFFFFF" d="M423.892,272.979V24.489c0,0,0.369-0.75,0.245-1.95L298.792,147.69L423.892,272.979z"/>
		<path fill="#FFFFFF" d="M276.052,170.984l-28.819,28.881c-11.689,11.689-23.765,14.181-31.835,14.181c-0.002,0-0.002,0-0.005,0
			c-18.703,0-31.941-12.731-33.386-14.181l-28.273-28.295L25.708,299.791c0.103,0.003,0.201,0.209,0.305,0.209h373.916
			c0,0,1.725-0.217,4.253-0.674L276.052,170.984z"/>
	</g>
</g>
</svg>
