<?xml version="1.0" encoding="utf-8"?>
<!-- Generator: Adobe Illustrator 16.0.0, SVG Export Plug-In . SVG Version: 6.00 Build 0)  -->
<!DOCTYPE svg PUBLIC "-//W3C//DTD SVG 1.1//EN" "http://www.w3.org/Graphics/SVG/1.1/DTD/svg11.dtd">
<svg version="1.1" id="Layer_1" xmlns="http://www.w3.org/2000/svg" xmlns:xlink="http://www.w3.org/1999/xlink" x="0px" y="0px"
	 width="901.374px" height="604.367px" viewBox="0 0 901.374 604.367" enable-background="new 0 0 901.374 604.367"
	 xml:space="preserve">
<path fill="#FA0025" d="M0,0v604.543h451.102V0H0z M109.822,580.354H43.546v-19.859h66.276V580.354z M109.822,525.934H43.546
	v-19.857h66.276V525.934z M109.822,471.514H43.546v-19.857h66.276V471.514z M109.822,417.096H43.546v-19.859h66.276V417.096z
	 M109.822,364.227H43.546v-19.857h66.276V364.227z M109.822,309.809H43.546v-19.859h66.276V309.809z M109.822,255.388H43.546
	v-19.857h66.276V255.388z M109.822,200.968H43.546v-19.857h66.276V200.968z M109.822,146.55H43.546v-19.859h66.276V146.55z
	 M109.822,92.13H43.546V72.273h66.276V92.13z M109.822,37.71H43.546V17.854h66.276V37.71z M258.688,580.354h-66.276v-19.859h66.276
	V580.354z M258.688,525.934h-66.276v-19.857h66.276V525.934z M258.688,471.514h-66.276v-19.857h66.276V471.514z M258.688,417.096
	h-66.276v-19.859h66.276V417.096z M258.688,364.227h-66.276v-19.857h66.276V364.227z M258.688,309.809h-66.276v-19.859h66.276
	V309.809z M258.688,255.388h-66.276v-19.857h66.276V255.388z M258.688,200.968h-66.276v-19.857h66.276V200.968z M258.688,146.55
	h-66.276v-19.859h66.276V146.55z M258.688,92.13h-66.276V72.273h66.276V92.13z M258.688,37.71h-66.276V17.854h66.276V37.71z
	 M407.555,580.354h-66.276v-19.859h66.276V580.354z M407.555,525.934h-66.276v-19.857h66.276V525.934z M407.555,471.514h-66.276
	v-19.857h66.276V471.514z M407.555,417.096h-66.276v-19.859h66.276V417.096z M407.555,364.227h-66.276v-19.857h66.276V364.227z
	 M407.555,309.809h-66.276v-19.859h66.276V309.809z M407.555,255.388h-66.276v-19.857h66.276V255.388z M407.555,200.968h-66.276
	v-19.857h66.276V200.968z M407.555,146.55h-66.276v-19.859h66.276V146.55z M407.555,92.13h-66.276V72.273h66.276V92.13z
	 M407.555,37.71h-66.276V17.854h66.276V37.71z"/>
<path fill="#FF6F00" d="M450.523-0.176v12.645h18.674v18.648h-18.674v32.455h18.674V82.22h-18.674v32.454h18.674v18.646h-18.674
	v32.455h18.674v18.646h-18.674v32.456h18.674v18.646h-18.674v32.453h18.674v18.647h-18.674v32.454h18.674v18.648h-18.674v30.996
	h18.674v18.647h-18.674v32.454h18.674v18.648h-18.674v32.453h18.674v18.648h-18.674v32.453h18.674v18.647h-18.674v32.454h18.674
	v18.646h-18.674v12.592h450.851V-0.176H450.523z M511.452,591.775h-18.812v-18.646h18.812V591.775z M511.452,540.675h-18.812
	v-18.647h18.812V540.675z M511.452,489.574h-18.812v-18.648h18.812V489.574z M511.452,438.473h-18.812v-18.648h18.812V438.473z
	 M511.452,387.37h-18.812v-18.647h18.812V387.37z M511.452,337.727h-18.812v-18.648h18.812V337.727z M511.452,286.624h-18.812
	v-18.647h18.812V286.624z M511.452,235.523h-18.812v-18.646h18.812V235.523z M511.452,184.421h-18.812v-18.646h18.812V184.421z
	 M511.452,133.32h-18.812v-18.646h18.812V133.32z M511.452,82.22h-18.812V63.572h18.812V82.22z M511.452,31.117h-18.812V12.469
	h18.812V31.117z M553.707,591.775h-18.812v-18.646h18.812V591.775z M553.707,540.675h-18.812v-18.647h18.812V540.675z
	 M553.707,489.574h-18.812v-18.648h18.812V489.574z M553.707,438.473h-18.812v-18.648h18.812V438.473z M553.707,387.37h-18.812
	v-18.647h18.812V387.37z M553.707,337.727h-18.812v-18.648h18.812V337.727z M553.707,286.624h-18.812v-18.647h18.812V286.624z
	 M553.707,235.523h-18.812v-18.646h18.812V235.523z M553.707,184.421h-18.812v-18.646h18.812V184.421z M553.707,133.32h-18.812
	v-18.646h18.812V133.32z M553.707,82.22h-18.812V63.572h18.812V82.22z M553.707,31.117h-18.812V12.469h18.812V31.117z
	 M595.962,591.775H577.15v-18.646h18.812V591.775z M595.962,540.675H577.15v-18.647h18.812V540.675z M595.962,489.574H577.15
	v-18.648h18.812V489.574z M595.962,438.473H577.15v-18.648h18.812V438.473z M595.962,387.37H577.15v-18.647h18.812V387.37z
	 M595.962,337.727H577.15v-18.648h18.812V337.727z M595.962,286.624H577.15v-18.647h18.812V286.624z M595.962,235.523H577.15
	v-18.646h18.812V235.523z M595.962,184.421H577.15v-18.646h18.812V184.421z M595.962,133.32H577.15v-18.646h18.812V133.32z
	 M595.962,82.22H577.15V63.572h18.812V82.22z M595.962,31.117H577.15V12.469h18.812V31.117z M638.218,591.775h-18.812v-18.646
	h18.812V591.775z M638.218,540.675h-18.812v-18.647h18.812V540.675z M638.218,489.574h-18.812v-18.648h18.812V489.574z
	 M638.218,438.473h-18.812v-18.648h18.812V438.473z M638.218,387.37h-18.812v-18.647h18.812V387.37z M638.218,337.727h-18.812
	v-18.648h18.812V337.727z M638.218,286.624h-18.812v-18.647h18.812V286.624z M638.218,235.523h-18.812v-18.646h18.812V235.523z
	 M638.218,184.421h-18.812v-18.646h18.812V184.421z M638.218,133.32h-18.812v-18.646h18.812V133.32z M638.218,82.22h-18.812V63.572
	h18.812V82.22z M638.218,31.117h-18.812V12.469h18.812V31.117z M681.22,591.775h-18.812v-18.646h18.812V591.775z M681.22,540.675
	h-18.812v-18.647h18.812V540.675z M681.22,489.574h-18.812v-18.648h18.812V489.574z M681.22,438.473h-18.812v-18.648h18.812V438.473
	z M681.22,387.37h-18.812v-18.647h18.812V387.37z M681.22,337.727h-18.812v-18.648h18.812V337.727z M681.22,286.624h-18.812v-18.647
	h18.812V286.624z M681.22,235.523h-18.812v-18.646h18.812V235.523z M681.22,184.421h-18.812v-18.646h18.812V184.421z M681.22,133.32
	h-18.812v-18.646h18.812V133.32z M681.22,82.22h-18.812V63.572h18.812V82.22z M681.22,31.117h-18.812V12.469h18.812V31.117z
	 M723.475,591.775h-18.812v-18.646h18.812V591.775z M723.475,540.675h-18.812v-18.647h18.812V540.675z M723.475,489.574h-18.812
	v-18.648h18.812V489.574z M723.475,438.473h-18.812v-18.648h18.812V438.473z M723.475,387.37h-18.812v-18.647h18.812V387.37z
	 M723.475,337.727h-18.812v-18.648h18.812V337.727z M723.475,286.624h-18.812v-18.647h18.812V286.624z M723.475,235.523h-18.812
	v-18.646h18.812V235.523z M723.475,184.421h-18.812v-18.646h18.812V184.421z M723.475,133.32h-18.812v-18.646h18.812V133.32z
	 M723.475,82.22h-18.812V63.572h18.812V82.22z M723.475,31.117h-18.812V12.469h18.812V31.117z M765.729,591.775h-18.812v-18.646
	h18.812V591.775z M765.729,540.675h-18.812v-18.647h18.812V540.675z M765.729,489.574h-18.812v-18.648h18.812V489.574z
	 M765.729,438.473h-18.812v-18.648h18.812V438.473z M765.729,387.37h-18.812v-18.647h18.812V387.37z M765.729,337.727h-18.812
	v-18.648h18.812V337.727z M765.729,286.624h-18.812v-18.647h18.812V286.624z M765.729,235.523h-18.812v-18.646h18.812V235.523z
	 M765.729,184.421h-18.812v-18.646h18.812V184.421z M765.729,133.32h-18.812v-18.646h18.812V133.32z M765.729,82.22h-18.812V63.572
	h18.812V82.22z M765.729,31.117h-18.812V12.469h18.812V31.117z M807.984,591.775h-18.812v-18.646h18.812V591.775z M807.984,540.675
	h-18.812v-18.647h18.812V540.675z M807.984,489.574h-18.812v-18.648h18.812V489.574z M807.984,438.473h-18.812v-18.648h18.812
	V438.473z M807.984,387.37h-18.812v-18.647h18.812V387.37z M807.984,337.727h-18.812v-18.648h18.812V337.727z M807.984,286.624
	h-18.812v-18.647h18.812V286.624z M807.984,235.523h-18.812v-18.646h18.812V235.523z M807.984,184.421h-18.812v-18.646h18.812
	V184.421z M807.984,133.32h-18.812v-18.646h18.812V133.32z M807.984,82.22h-18.812V63.572h18.812V82.22z M807.984,31.117h-18.812
	V12.469h18.812V31.117z M850.239,591.775h-18.812v-18.646h18.812V591.775z M850.239,540.675h-18.812v-18.647h18.812V540.675z
	 M850.239,489.574h-18.812v-18.648h18.812V489.574z M850.239,438.473h-18.812v-18.648h18.812V438.473z M850.239,387.37h-18.812
	v-18.647h18.812V387.37z M850.239,337.727h-18.812v-18.648h18.812V337.727z M850.239,286.624h-18.812v-18.647h18.812V286.624z
	 M850.239,235.523h-18.812v-18.646h18.812V235.523z M850.239,184.421h-18.812v-18.646h18.812V184.421z M850.239,133.32h-18.812
	v-18.646h18.812V133.32z M850.239,82.22h-18.812V63.572h18.812V82.22z M850.239,31.117h-18.812V12.469h18.812V31.117z"/>
<path fill="#FFFFFF" d="M139.216,501.942h618.928V118.223H139.216V501.942z M773.587,517.385H123.774V102.781h649.812V517.385z"/>
<path fill="#FFFFFF" d="M200.106,179.967l-9.265-26.973h-0.205l-9.575,26.973H200.106z M199.18,134.875l27.488,73.506h-16.781
	l-5.56-16.369H176.84l-5.765,16.369h-16.267l27.797-73.506H199.18z"/>
<path fill="#FFFFFF" d="M243.036,155.156v9.884h0.206c0.685-1.648,1.611-3.174,2.78-4.582c1.166-1.405,2.505-2.608,4.014-3.603
	c1.509-0.994,3.123-1.766,4.839-2.316c1.715-0.549,3.5-0.824,5.354-0.824c0.96,0,2.023,0.172,3.191,0.515v13.59
	c-0.687-0.137-1.511-0.258-2.471-0.361c-0.961-0.103-1.889-0.154-2.78-0.154c-2.676,0-4.941,0.447-6.795,1.338
	c-1.852,0.892-3.345,2.11-4.477,3.654c-1.133,1.545-1.941,3.346-2.419,5.406c-0.482,2.058-0.722,4.29-0.722,6.691v23.987h-14.618
	v-53.225H243.036z"/>
<path fill="#FFFFFF" d="M289.877,164.73c-2.334,0-4.29,0.533-5.869,1.596c-1.578,1.064-2.865,2.437-3.86,4.117
	c-0.996,1.683-1.698,3.536-2.11,5.56c-0.413,2.025-0.618,4.032-0.618,6.022c0,1.923,0.205,3.879,0.618,5.869
	c0.412,1.991,1.08,3.792,2.008,5.405c0.926,1.613,2.178,2.933,3.757,3.963c1.577,1.03,3.5,1.543,5.765,1.543
	c3.5,0,6.193-0.977,8.082-2.933c1.886-1.956,3.07-4.582,3.551-7.875h14.104c-0.961,7.069-3.706,12.456-8.235,16.162
	c-4.53,3.706-10.331,5.56-17.399,5.56c-3.981,0-7.636-0.67-10.964-2.007c-3.33-1.339-6.161-3.209-8.494-5.611
	c-2.333-2.402-4.153-5.267-5.456-8.596c-1.305-3.329-1.956-6.984-1.956-10.965c0-4.118,0.6-7.944,1.802-11.479
	c1.199-3.534,2.968-6.589,5.301-9.162c2.332-2.574,5.182-4.581,8.546-6.023c3.361-1.441,7.206-2.162,11.53-2.162
	c3.156,0,6.193,0.412,9.111,1.236c2.915,0.823,5.523,2.076,7.824,3.758c2.299,1.681,4.169,3.775,5.61,6.28
	c1.442,2.505,2.266,5.474,2.471,8.905h-14.309C299.725,167.785,296.122,164.73,289.877,164.73"/>
<path fill="#FFFFFF" d="M333.114,134.875v27.694h0.309c1.854-3.089,4.221-5.336,7.104-6.744c2.882-1.406,5.696-2.111,8.441-2.111
	c3.912,0,7.121,0.533,9.627,1.596c2.503,1.066,4.477,2.54,5.919,4.428c1.44,1.888,2.453,4.187,3.037,6.896
	c0.582,2.714,0.875,5.715,0.875,9.008v32.739h-14.619v-30.062c0-4.391-0.687-7.669-2.059-9.831
	c-1.373-2.161-3.809-3.242-7.309-3.242c-3.981,0-6.864,1.184-8.648,3.551c-1.786,2.368-2.677,6.264-2.677,11.685v27.899h-14.618
	v-73.506H333.114z"/>
<path fill="#FFFFFF" d="M404.767,155.156v9.781H394.06v26.354c0,2.471,0.412,4.118,1.234,4.942c0.825,0.824,2.472,1.235,4.942,1.235
	c0.824,0,1.612-0.033,2.369-0.102c0.754-0.068,1.474-0.171,2.161-0.309v11.324c-1.235,0.206-2.609,0.343-4.118,0.412
	c-1.511,0.067-2.986,0.103-4.426,0.103c-2.267,0-4.411-0.154-6.436-0.463s-3.809-0.909-5.353-1.803
	c-1.545-0.891-2.765-2.161-3.655-3.808c-0.893-1.647-1.338-3.81-1.338-6.486v-31.399h-8.853v-9.781h8.853V139.2h14.618v15.956
	H404.767z"/>
<path fill="#FFFFFF" d="M420.824,188.048c0.412,2.024,1.115,3.844,2.11,5.456c0.995,1.613,2.317,2.9,3.963,3.861
	c1.648,0.962,3.708,1.44,6.178,1.44c2.472,0,4.547-0.478,6.229-1.44c1.68-0.961,3.018-2.248,4.015-3.861
	c0.994-1.612,1.698-3.432,2.11-5.456c0.412-2.023,0.618-4.101,0.618-6.228c0-2.128-0.206-4.222-0.618-6.28
	c-0.412-2.06-1.116-3.877-2.11-5.457c-0.997-1.578-2.335-2.865-4.015-3.86c-1.683-0.994-3.758-1.493-6.229-1.493
	c-2.47,0-4.529,0.499-6.178,1.493c-1.646,0.995-2.968,2.282-3.963,3.86c-0.995,1.58-1.698,3.397-2.11,5.457
	c-0.411,2.058-0.616,4.152-0.616,6.28C420.208,183.948,420.413,186.025,420.824,188.048 M407.544,170.239
	c1.303-3.465,3.156-6.417,5.56-8.854c2.401-2.435,5.284-4.324,8.647-5.662c3.362-1.339,7.138-2.008,11.324-2.008
	c4.186,0,7.979,0.669,11.377,2.008c3.396,1.338,6.296,3.227,8.698,5.662c2.402,2.437,4.255,5.389,5.561,8.854
	c1.302,3.466,1.955,7.327,1.955,11.582c0,4.256-0.653,8.098-1.955,11.53c-1.306,3.432-3.158,6.366-5.561,8.802
	c-2.402,2.437-5.302,4.308-8.698,5.61c-3.398,1.303-7.191,1.956-11.377,1.956c-4.187,0-7.962-0.653-11.324-1.956
	c-3.363-1.302-6.246-3.173-8.647-5.61c-2.403-2.436-4.257-5.37-5.56-8.802c-1.305-3.432-1.956-7.274-1.956-11.53
	C405.588,177.565,406.239,173.705,407.544,170.239"/>
<path fill="#FFFFFF" d="M502.669,175.334c-0.481-2.059-1.236-3.876-2.265-5.456c-1.03-1.578-2.317-2.831-3.86-3.758
	c-1.545-0.926-3.416-1.39-5.612-1.39c-2.127,0-3.98,0.464-5.559,1.39c-1.58,0.927-2.882,2.18-3.912,3.758
	c-1.03,1.58-1.785,3.397-2.265,5.456c-0.481,2.059-0.721,4.221-0.721,6.486c0,2.197,0.239,4.323,0.721,6.383
	c0.479,2.059,1.234,3.878,2.265,5.455c1.03,1.58,2.332,2.832,3.912,3.759c1.578,0.927,3.432,1.389,5.559,1.389
	c2.196,0,4.067-0.462,5.612-1.389c1.543-0.927,2.83-2.179,3.86-3.759c1.028-1.577,1.783-3.396,2.265-5.455
	c0.478-2.06,0.72-4.186,0.72-6.383C503.389,179.555,503.146,177.393,502.669,175.334 M478.99,134.875v26.766h0.206
	c1.784-2.743,4.203-4.751,7.259-6.022c3.052-1.269,6.228-1.905,9.521-1.905c2.678,0,5.318,0.551,7.928,1.648
	c2.607,1.098,4.958,2.78,7.051,5.044c2.094,2.266,3.792,5.165,5.098,8.7c1.302,3.535,1.955,7.739,1.955,12.611
	c0,4.874-0.653,9.077-1.955,12.611c-1.306,3.535-3.004,6.435-5.098,8.699c-2.093,2.265-4.443,3.947-7.051,5.045
	c-2.609,1.097-5.25,1.647-7.928,1.647c-3.912,0-7.412-0.618-10.501-1.854c-3.088-1.235-5.423-3.327-7-6.279h-0.206v6.795h-13.897
	v-73.506H478.99z"/>
<path fill="#FFFFFF" d="M555.474,167.613c-1.748-1.921-4.404-2.883-7.965-2.883c-2.33,0-4.266,0.396-5.809,1.184
	c-1.539,0.789-2.772,1.768-3.698,2.934c-0.925,1.168-1.577,2.403-1.952,3.706c-0.378,1.305-0.602,2.471-0.669,3.5h23.741
	C558.436,172.348,557.22,169.535,555.474,167.613 M538.979,195.615c2.192,2.128,5.343,3.191,9.454,3.191
	c2.946,0,5.481-0.737,7.605-2.213c2.123-1.476,3.425-3.036,3.905-4.684h12.847c-2.056,6.383-5.207,10.947-9.454,13.692
	c-4.249,2.746-9.389,4.118-15.416,4.118c-4.181,0-7.949-0.67-11.307-2.007c-3.356-1.338-6.2-3.244-8.528-5.714
	c-2.33-2.471-4.129-5.422-5.396-8.854c-1.269-3.43-1.9-7.207-1.9-11.324c0-3.98,0.649-7.686,1.951-11.119
	c1.302-3.431,3.151-6.399,5.551-8.905c2.397-2.505,5.258-4.478,8.581-5.919c3.321-1.442,7.006-2.163,11.049-2.163
	c4.521,0,8.461,0.876,11.817,2.625c3.357,1.751,6.116,4.102,8.274,7.053c2.157,2.952,3.716,6.315,4.675,10.089
	c0.959,3.775,1.301,7.721,1.028,11.839h-38.334C535.587,190.055,536.784,193.489,538.979,195.615"/>
<path fill="#FFFFFF" d="M590.791,155.156v9.884h0.206c0.685-1.648,1.611-3.174,2.78-4.582c1.166-1.405,2.505-2.608,4.014-3.603
	c1.509-0.994,3.123-1.766,4.839-2.316c1.714-0.549,3.5-0.824,5.354-0.824c0.96,0,2.022,0.172,3.19,0.515v13.59
	c-0.688-0.137-1.511-0.258-2.471-0.361c-0.961-0.103-1.889-0.154-2.78-0.154c-2.676,0-4.94,0.447-6.795,1.338
	c-1.852,0.892-3.345,2.11-4.477,3.654c-1.134,1.545-1.941,3.346-2.419,5.406c-0.482,2.058-0.723,4.29-0.723,6.691v23.987h-14.617
	v-53.225H590.791z"/>
</svg>
