<?xml version="1.0" encoding="utf-8"?>
<!-- Generator: Adobe Illustrator 16.0.0, SVG Export Plug-In . SVG Version: 6.00 Build 0)  -->
<!DOCTYPE svg PUBLIC "-//W3C//DTD SVG 1.1//EN" "http://www.w3.org/Graphics/SVG/1.1/DTD/svg11.dtd">
<svg version="1.1" xmlns="http://www.w3.org/2000/svg" xmlns:xlink="http://www.w3.org/1999/xlink" x="0px" y="0px"
	 width="901.375px" height="604.367px" viewBox="0 0 901.375 604.367" enable-background="new 0 0 901.375 604.367"
	 xml:space="preserve">
<g id="Layer_2">
	<rect fill="#C0A475" width="901.375" height="604.367"/>
</g>
<g id="Layer_1">
	<g>
		<path fill="#FA0025" d="M0,0v604.543h451.102V0H0z M109.822,580.354H43.546v-19.858h66.276V580.354L109.822,580.354z
			 M109.822,525.934H43.546v-19.856h66.276V525.934L109.822,525.934z M109.822,471.514H43.546v-19.856h66.276V471.514
			L109.822,471.514z M109.822,417.096H43.546v-19.858h66.276V417.096L109.822,417.096z M109.822,364.227H43.546V344.37h66.276
			V364.227L109.822,364.227z M109.822,309.809H43.546V289.95h66.276V309.809L109.822,309.809z M109.822,255.388H43.546v-19.857
			h66.276V255.388L109.822,255.388z M109.822,200.968H43.546v-19.857h66.276V200.968L109.822,200.968z M109.822,146.55H43.546
			v-19.859h66.276V146.55L109.822,146.55z M109.822,92.13H43.546V72.273h66.276V92.13L109.822,92.13z M109.822,37.71H43.546V17.854
			h66.276V37.71L109.822,37.71z M258.688,580.354h-66.276v-19.858h66.276V580.354z M258.688,525.934h-66.276v-19.856h66.276V525.934
			z M258.688,471.514h-66.276v-19.856h66.276V471.514z M258.688,417.096h-66.276v-19.858h66.276V417.096z M258.688,364.227h-66.276
			V344.37h66.276V364.227z M258.688,309.809h-66.276V289.95h66.276V309.809z M258.688,255.388h-66.276v-19.857h66.276V255.388z
			 M258.688,200.968h-66.276v-19.857h66.276V200.968z M258.688,146.55h-66.276v-19.859h66.276V146.55z M258.688,92.13h-66.276
			V72.273h66.276V92.13z M258.688,37.71h-66.276V17.854h66.276V37.71z M407.555,580.354h-66.276v-19.858h66.276V580.354z
			 M407.555,525.934h-66.276v-19.856h66.276V525.934z M407.555,471.514h-66.276v-19.856h66.276V471.514z M407.555,417.096h-66.276
			v-19.858h66.276V417.096z M407.555,364.227h-66.276V344.37h66.276V364.227z M407.555,309.809h-66.276V289.95h66.276V309.809z
			 M407.555,255.388h-66.276v-19.857h66.276V255.388z M407.555,200.968h-66.276v-19.857h66.276V200.968z M407.555,146.55h-66.276
			v-19.859h66.276V146.55z M407.555,92.13h-66.276V72.273h66.276V92.13z M407.555,37.71h-66.276V17.854h66.276V37.71z"/>
	</g>
	<g>
		<path fill="#FF6F00" d="M450.523-0.176v12.645h18.673v18.648h-18.673v32.455h18.673V82.22h-18.673v32.454h18.673v18.646h-18.673
			v32.455h18.673v18.646h-18.673v32.456h18.673v18.646h-18.673v32.453h18.673v18.647h-18.673v32.454h18.673v18.647h-18.673v30.996
			h18.673v18.647h-18.673v32.454h18.673v18.647h-18.673v32.453h18.673v18.648h-18.673v32.453h18.673v18.646h-18.673v32.454h18.673
			v18.646h-18.673v12.592h450.851V-0.176H450.523z M511.453,591.775H492.64v-18.646h18.812V591.775z M511.453,540.675H492.64
			v-18.646h18.812V540.675z M511.453,489.574H492.64v-18.648h18.812V489.574z M511.453,438.473H492.64v-18.647h18.812V438.473z
			 M511.453,387.37H492.64v-18.647h18.812V387.37z M511.453,337.727H492.64v-18.647h18.812V337.727z M511.453,286.624H492.64
			v-18.647h18.812V286.624z M511.453,235.523H492.64v-18.646h18.812V235.523z M511.453,184.421H492.64v-18.646h18.812V184.421z
			 M511.453,133.32H492.64v-18.646h18.812V133.32z M511.453,82.22H492.64V63.572h18.812V82.22z M511.453,31.117H492.64V12.469
			h18.812V31.117z M553.707,591.775h-18.812v-18.646h18.812V591.775z M553.707,540.675h-18.812v-18.646h18.812V540.675z
			 M553.707,489.574h-18.812v-18.648h18.812V489.574z M553.707,438.473h-18.812v-18.647h18.812V438.473z M553.707,387.37h-18.812
			v-18.647h18.812V387.37z M553.707,337.727h-18.812v-18.647h18.812V337.727z M553.707,286.624h-18.812v-18.647h18.812V286.624z
			 M553.707,235.523h-18.812v-18.646h18.812V235.523z M553.707,184.421h-18.812v-18.646h18.812V184.421z M553.707,133.32h-18.812
			v-18.646h18.812V133.32z M553.707,82.22h-18.812V63.572h18.812V82.22z M553.707,31.117h-18.812V12.469h18.812V31.117z
			 M595.962,591.775H577.15v-18.646h18.812V591.775L595.962,591.775z M595.962,540.675H577.15v-18.646h18.812V540.675
			L595.962,540.675z M595.962,489.574H577.15v-18.648h18.812V489.574L595.962,489.574z M595.962,438.473H577.15v-18.647h18.812
			V438.473L595.962,438.473z M595.962,387.37H577.15v-18.647h18.812V387.37L595.962,387.37z M595.962,337.727H577.15v-18.647h18.812
			V337.727L595.962,337.727z M595.962,286.624H577.15v-18.647h18.812V286.624L595.962,286.624z M595.962,235.523H577.15v-18.646
			h18.812V235.523L595.962,235.523z M595.962,184.421H577.15v-18.646h18.812V184.421L595.962,184.421z M595.962,133.32H577.15
			v-18.646h18.812V133.32L595.962,133.32z M595.962,82.22H577.15V63.572h18.812V82.22L595.962,82.22z M595.962,31.117H577.15V12.469
			h18.812V31.117L595.962,31.117z M638.218,591.775h-18.812v-18.646h18.812V591.775z M638.218,540.675h-18.812v-18.646h18.812
			V540.675z M638.218,489.574h-18.812v-18.648h18.812V489.574z M638.218,438.473h-18.812v-18.647h18.812V438.473z M638.218,387.37
			h-18.812v-18.647h18.812V387.37z M638.218,337.727h-18.812v-18.647h18.812V337.727z M638.218,286.624h-18.812v-18.647h18.812
			V286.624z M638.218,235.523h-18.812v-18.646h18.812V235.523z M638.218,184.421h-18.812v-18.646h18.812V184.421z M638.218,133.32
			h-18.812v-18.646h18.812V133.32z M638.218,82.22h-18.812V63.572h18.812V82.22z M638.218,31.117h-18.812V12.469h18.812V31.117z
			 M681.22,591.775h-18.812v-18.646h18.812V591.775z M681.22,540.675h-18.812v-18.646h18.812V540.675z M681.22,489.574h-18.812
			v-18.648h18.812V489.574z M681.22,438.473h-18.812v-18.647h18.812V438.473z M681.22,387.37h-18.812v-18.647h18.812V387.37z
			 M681.22,337.727h-18.812v-18.647h18.812V337.727z M681.22,286.624h-18.812v-18.647h18.812V286.624z M681.22,235.523h-18.812
			v-18.646h18.812V235.523z M681.22,184.421h-18.812v-18.646h18.812V184.421z M681.22,133.32h-18.812v-18.646h18.812V133.32z
			 M681.22,82.22h-18.812V63.572h18.812V82.22z M681.22,31.117h-18.812V12.469h18.812V31.117z M723.474,591.775h-18.811v-18.646
			h18.811V591.775z M723.474,540.675h-18.811v-18.646h18.811V540.675z M723.474,489.574h-18.811v-18.648h18.811V489.574z
			 M723.474,438.473h-18.811v-18.647h18.811V438.473z M723.474,387.37h-18.811v-18.647h18.811V387.37z M723.474,337.727h-18.811
			v-18.647h18.811V337.727z M723.474,286.624h-18.811v-18.647h18.811V286.624z M723.474,235.523h-18.811v-18.646h18.811V235.523z
			 M723.474,184.421h-18.811v-18.646h18.811V184.421z M723.474,133.32h-18.811v-18.646h18.811V133.32z M723.474,82.22h-18.811
			V63.572h18.811V82.22z M723.474,31.117h-18.811V12.469h18.811V31.117z M765.728,591.775h-18.811v-18.646h18.811V591.775z
			 M765.728,540.675h-18.811v-18.646h18.811V540.675z M765.728,489.574h-18.811v-18.648h18.811V489.574z M765.728,438.473h-18.811
			v-18.647h18.811V438.473z M765.728,387.37h-18.811v-18.647h18.811V387.37z M765.728,337.727h-18.811v-18.647h18.811V337.727z
			 M765.728,286.624h-18.811v-18.647h18.811V286.624z M765.728,235.523h-18.811v-18.646h18.811V235.523z M765.728,184.421h-18.811
			v-18.646h18.811V184.421z M765.728,133.32h-18.811v-18.646h18.811V133.32z M765.728,82.22h-18.811V63.572h18.811V82.22z
			 M765.728,31.117h-18.811V12.469h18.811V31.117z M807.984,591.775h-18.812v-18.646h18.812V591.775z M807.984,540.675h-18.812
			v-18.646h18.812V540.675z M807.984,489.574h-18.812v-18.648h18.812V489.574z M807.984,438.473h-18.812v-18.647h18.812V438.473z
			 M807.984,387.37h-18.812v-18.647h18.812V387.37z M807.984,337.727h-18.812v-18.647h18.812V337.727z M807.984,286.624h-18.812
			v-18.647h18.812V286.624z M807.984,235.523h-18.812v-18.646h18.812V235.523z M807.984,184.421h-18.812v-18.646h18.812V184.421z
			 M807.984,133.32h-18.812v-18.646h18.812V133.32z M807.984,82.22h-18.812V63.572h18.812V82.22z M807.984,31.117h-18.812V12.469
			h18.812V31.117z M850.24,591.775h-18.812v-18.646h18.812V591.775z M850.24,540.675h-18.812v-18.646h18.812V540.675z
			 M850.24,489.574h-18.812v-18.648h18.812V489.574z M850.24,438.473h-18.812v-18.647h18.812V438.473z M850.24,387.37h-18.812
			v-18.647h18.812V387.37z M850.24,337.727h-18.812v-18.647h18.812V337.727z M850.24,286.624h-18.812v-18.647h18.812V286.624z
			 M850.24,235.523h-18.812v-18.646h18.812V235.523z M850.24,184.421h-18.812v-18.646h18.812V184.421z M850.24,133.32h-18.812
			v-18.646h18.812V133.32z M850.24,82.22h-18.812V63.572h18.812V82.22z M850.24,31.117h-18.812V12.469h18.812V31.117z"/>
	</g>
	<g>
		<path fill="#FFFFFF" d="M139.216,501.942h618.928V118.223H139.216V501.942z M773.587,517.385H123.774V102.781h649.812v414.604
			H773.587z"/>
	</g>
	<g>
		<path fill="#FFFFFF" d="M200.106,179.967l-9.265-26.973h-0.205l-9.575,26.973H200.106z M199.18,134.875l27.488,73.506h-16.781
			l-5.56-16.369H176.84l-5.765,16.369h-16.267l27.797-73.506H199.18z"/>
	</g>
	<g>
		<path fill="#FFFFFF" d="M243.036,155.156v9.884h0.206c0.685-1.648,1.611-3.174,2.78-4.582c1.166-1.405,2.505-2.608,4.014-3.603
			c1.509-0.994,3.123-1.766,4.839-2.316c1.715-0.549,3.5-0.824,5.354-0.824c0.96,0,2.023,0.172,3.191,0.515v13.59
			c-0.687-0.137-1.511-0.258-2.471-0.361c-0.961-0.103-1.889-0.154-2.78-0.154c-2.676,0-4.941,0.447-6.795,1.338
			c-1.852,0.892-3.345,2.11-4.477,3.654c-1.133,1.545-1.941,3.346-2.419,5.406c-0.482,2.058-0.722,4.29-0.722,6.691v23.987h-14.618
			v-53.225H243.036z"/>
	</g>
	<g>
		<path fill="#FFFFFF" d="M289.877,164.73c-2.334,0-4.29,0.533-5.869,1.596c-1.578,1.064-2.865,2.437-3.86,4.117
			c-0.996,1.683-1.698,3.536-2.11,5.56c-0.413,2.025-0.618,4.032-0.618,6.022c0,1.923,0.205,3.879,0.618,5.869
			c0.412,1.991,1.08,3.792,2.008,5.405c0.926,1.613,2.178,2.933,3.757,3.963c1.577,1.03,3.5,1.543,5.765,1.543
			c3.5,0,6.193-0.977,8.082-2.933c1.886-1.956,3.07-4.582,3.551-7.875h14.104c-0.961,7.069-3.706,12.456-8.235,16.162
			c-4.53,3.706-10.331,5.56-17.399,5.56c-3.981,0-7.636-0.67-10.964-2.007c-3.33-1.339-6.161-3.209-8.494-5.611
			s-4.153-5.267-5.456-8.596c-1.305-3.329-1.956-6.984-1.956-10.965c0-4.118,0.6-7.944,1.802-11.479
			c1.199-3.534,2.968-6.589,5.301-9.162c2.332-2.574,5.182-4.581,8.546-6.023c3.361-1.441,7.206-2.162,11.53-2.162
			c3.156,0,6.193,0.412,9.111,1.236c2.915,0.823,5.523,2.076,7.824,3.758c2.299,1.681,4.169,3.775,5.61,6.28
			c1.442,2.505,2.266,5.474,2.471,8.905h-14.309C299.725,167.785,296.122,164.73,289.877,164.73"/>
	</g>
	<g>
		<path fill="#FFFFFF" d="M333.114,134.875v27.694h0.309c1.854-3.089,4.221-5.336,7.104-6.744c2.882-1.406,5.696-2.111,8.441-2.111
			c3.912,0,7.121,0.533,9.627,1.596c2.503,1.066,4.477,2.54,5.919,4.428c1.44,1.888,2.453,4.187,3.037,6.896
			c0.582,2.714,0.875,5.715,0.875,9.008v32.739h-14.619v-30.062c0-4.391-0.687-7.669-2.059-9.831
			c-1.373-2.161-3.809-3.242-7.309-3.242c-3.981,0-6.864,1.184-8.648,3.551c-1.786,2.368-2.677,6.264-2.677,11.685v27.899h-14.618
			v-73.506H333.114L333.114,134.875z"/>
	</g>
	<g>
		<path fill="#FFFFFF" d="M404.767,155.156v9.781H394.06v26.354c0,2.471,0.412,4.118,1.234,4.942
			c0.825,0.824,2.472,1.235,4.942,1.235c0.823,0,1.611-0.033,2.369-0.102c0.754-0.068,1.474-0.171,2.16-0.309v11.324
			c-1.234,0.206-2.608,0.343-4.117,0.412c-1.512,0.067-2.986,0.103-4.427,0.103c-2.267,0-4.411-0.154-6.436-0.463
			c-2.025-0.309-3.809-0.909-5.353-1.803c-1.545-0.891-2.765-2.161-3.655-3.808c-0.893-1.647-1.338-3.81-1.338-6.486v-31.399h-8.853
			v-9.781h8.853V139.2h14.618v15.956H404.767z"/>
	</g>
	<g>
		<path fill="#FFFFFF" d="M420.824,188.048c0.412,2.024,1.115,3.844,2.109,5.456c0.995,1.613,2.317,2.9,3.964,3.861
			c1.647,0.962,3.708,1.44,6.178,1.44c2.472,0,4.547-0.478,6.229-1.44c1.681-0.961,3.019-2.248,4.016-3.861
			c0.993-1.612,1.697-3.432,2.109-5.456c0.412-2.023,0.618-4.101,0.618-6.228c0-2.128-0.206-4.222-0.618-6.28
			c-0.412-2.06-1.116-3.877-2.109-5.457c-0.997-1.578-2.335-2.865-4.016-3.86c-1.683-0.994-3.758-1.493-6.229-1.493
			c-2.47,0-4.529,0.499-6.178,1.493c-1.646,0.995-2.969,2.282-3.964,3.86c-0.994,1.58-1.697,3.397-2.109,5.457
			c-0.411,2.058-0.616,4.152-0.616,6.28C420.208,183.948,420.413,186.025,420.824,188.048 M407.544,170.239
			c1.303-3.465,3.156-6.417,5.56-8.854c2.401-2.435,5.284-4.324,8.647-5.662c3.362-1.339,7.138-2.008,11.324-2.008
			c4.186,0,7.979,0.669,11.377,2.008c3.396,1.338,6.296,3.227,8.698,5.662c2.402,2.437,4.256,5.389,5.561,8.854
			c1.303,3.466,1.955,7.327,1.955,11.582c0,4.256-0.652,8.098-1.955,11.53c-1.305,3.432-3.158,6.366-5.561,8.802
			c-2.402,2.437-5.302,4.308-8.698,5.61c-3.398,1.303-7.191,1.956-11.377,1.956c-4.188,0-7.962-0.653-11.324-1.956
			c-3.363-1.302-6.246-3.173-8.647-5.61c-2.402-2.436-4.257-5.37-5.56-8.802c-1.305-3.432-1.956-7.274-1.956-11.53
			C405.588,177.565,406.239,173.705,407.544,170.239"/>
	</g>
	<g>
		<path fill="#FFFFFF" d="M502.669,175.334c-0.482-2.059-1.236-3.876-2.266-5.456c-1.029-1.578-2.316-2.831-3.859-3.758
			c-1.545-0.926-3.416-1.39-5.613-1.39c-2.127,0-3.979,0.464-5.559,1.39c-1.58,0.927-2.881,2.18-3.912,3.758
			c-1.029,1.58-1.785,3.397-2.264,5.456c-0.482,2.059-0.723,4.221-0.723,6.486c0,2.197,0.24,4.323,0.723,6.383
			c0.479,2.059,1.232,3.878,2.264,5.455c1.031,1.58,2.332,2.832,3.912,3.759c1.578,0.927,3.432,1.389,5.559,1.389
			c2.197,0,4.068-0.462,5.613-1.389c1.543-0.927,2.83-2.179,3.859-3.759c1.027-1.577,1.783-3.396,2.266-5.455
			c0.477-2.06,0.719-4.186,0.719-6.383C503.388,179.555,503.146,177.393,502.669,175.334 M478.99,134.875v26.766h0.207
			c1.783-2.743,4.203-4.751,7.258-6.022c3.053-1.269,6.229-1.905,9.521-1.905c2.678,0,5.318,0.551,7.928,1.648
			c2.607,1.098,4.959,2.78,7.051,5.044c2.094,2.266,3.793,5.165,5.098,8.7c1.303,3.535,1.955,7.739,1.955,12.611
			c0,4.874-0.652,9.077-1.955,12.611c-1.305,3.535-3.004,6.435-5.098,8.699c-2.092,2.265-4.443,3.947-7.051,5.045
			c-2.609,1.097-5.25,1.646-7.928,1.646c-3.912,0-7.412-0.618-10.502-1.854c-3.088-1.235-5.422-3.327-7-6.279h-0.205v6.795h-13.896
			v-73.506H478.99z"/>
	</g>
	<g>
		<path fill="#FFFFFF" d="M555.474,167.613c-1.748-1.921-4.404-2.883-7.965-2.883c-2.33,0-4.266,0.396-5.809,1.184
			c-1.539,0.789-2.773,1.768-3.699,2.934c-0.924,1.168-1.576,2.403-1.951,3.706c-0.379,1.305-0.602,2.471-0.67,3.5h23.742
			C558.435,172.348,557.22,169.535,555.474,167.613 M538.978,195.615c2.193,2.128,5.344,3.191,9.455,3.191
			c2.945,0,5.48-0.737,7.605-2.213c2.123-1.476,3.424-3.036,3.904-4.684h12.848c-2.057,6.383-5.207,10.947-9.455,13.692
			c-4.248,2.746-9.389,4.118-15.416,4.118c-4.18,0-7.949-0.67-11.307-2.007c-3.355-1.338-6.199-3.244-8.527-5.714
			c-2.33-2.471-4.129-5.422-5.396-8.854c-1.27-3.43-1.9-7.207-1.9-11.324c0-3.98,0.648-7.686,1.951-11.119
			c1.303-3.431,3.15-6.399,5.551-8.905c2.396-2.505,5.258-4.478,8.582-5.919c3.32-1.442,7.006-2.163,11.049-2.163
			c4.521,0,8.461,0.876,11.816,2.625c3.357,1.751,6.115,4.102,8.273,7.053c2.158,2.952,3.717,6.315,4.676,10.089
			c0.959,3.775,1.301,7.721,1.027,11.839H535.38C535.587,190.055,536.785,193.489,538.978,195.615"/>
	</g>
	<g>
		<path fill="#FFFFFF" d="M590.791,155.156v9.884h0.207c0.684-1.648,1.611-3.174,2.779-4.582c1.166-1.405,2.506-2.608,4.014-3.603
			c1.51-0.994,3.123-1.766,4.84-2.316c1.713-0.549,3.5-0.824,5.354-0.824c0.961,0,2.021,0.172,3.189,0.515v13.59
			c-0.688-0.137-1.51-0.258-2.471-0.361s-1.889-0.154-2.779-0.154c-2.676,0-4.939,0.447-6.795,1.338
			c-1.852,0.892-3.346,2.11-4.477,3.654c-1.135,1.545-1.941,3.346-2.42,5.406c-0.482,2.058-0.723,4.29-0.723,6.691v23.987h-14.617
			v-53.225H590.791z"/>
	</g>
</g>
</svg>
