<?xml version="1.0" encoding="utf-8"?>
<!-- Generator: Adobe Illustrator 16.0.0, SVG Export Plug-In . SVG Version: 6.00 Build 0)  -->
<!DOCTYPE svg PUBLIC "-//W3C//DTD SVG 1.1//EN" "http://www.w3.org/Graphics/SVG/1.1/DTD/svg11.dtd">
<svg version="1.1" id="Layer_1" xmlns="http://www.w3.org/2000/svg" xmlns:xlink="http://www.w3.org/1999/xlink" x="0px" y="0px"
	 width="255.207px" height="348.129px" viewBox="0 0 255.207 348.129" enable-background="new 0 0 255.207 348.129"
	 xml:space="preserve">
<path fill="#ED174F" d="M255.001,8.129v-9h-255v9h20v12h-20v18h20v12h-20v18h20v13h-20v20h20v12h-20v18h20v12h-20v20h20v12h-20v15
	h255v-15h-20v-12h20v-20h-20v-12h20v-18h-20v-12h20v-20h-20v-13h20v-18h-20v-12h20v-18h-20v-12H255.001z M68.002,175.129h-31v-12h31
	V175.129z M68.002,143.129h-31v-12h31V143.129z M68.002,113.129h-31v-12h31V113.129z M68.002,81.129h-31v-13h31V81.129z
	 M68.002,50.129h-31v-12h31V50.129z M68.002,20.129h-31v-12h31V20.129z M117.002,175.129h-31v-12h31V175.129z M117.002,143.129h-31
	v-12h31V143.129z M117.002,113.129h-31v-12h31V113.129z M117.002,81.129h-31v-13h31V81.129z M117.002,50.129h-31v-12h31V50.129z
	 M117.002,20.129h-31v-12h31V20.129z M166.001,175.129h-31v-12h31V175.129z M166.001,143.129h-31v-12h31V143.129z M166.001,113.129
	h-31v-12h31V113.129z M166.001,81.129h-31v-13h31V81.129z M166.001,50.129h-31v-12h31V50.129z M166.001,20.129h-31v-12h31V20.129z
	 M218.001,175.129h-32v-12h32V175.129z M218.001,143.129h-32v-12h32V143.129z M218.001,113.129h-32v-12h32V113.129z M218.001,81.129
	h-32v-13h32V81.129z M218.001,50.129h-32v-12h32V50.129z M218.001,20.129h-32v-12h32V20.129z"/>
<g>
	<path fill="#FFFFFF" d="M45.625,136.839l-3.055-8.895h-0.068l-3.157,8.895H45.625z M45.32,121.968l9.065,24.242h-5.534
		l-1.833-5.399h-9.066l-1.901,5.399h-5.364l9.167-24.242H45.32z"/>
</g>
<g>
	<path fill="#FFFFFF" d="M59.783,128.657v3.26h0.068c0.226-0.544,0.531-1.047,0.917-1.511c0.384-0.464,0.826-0.86,1.324-1.189
		c0.497-0.327,1.029-0.582,1.596-0.763c0.565-0.182,1.154-0.272,1.765-0.272c0.317,0,0.667,0.056,1.052,0.17v4.481
		c-0.226-0.045-0.498-0.085-0.814-0.119c-0.317-0.034-0.623-0.051-0.917-0.051c-0.883,0-1.63,0.148-2.241,0.442
		c-0.611,0.294-1.103,0.696-1.477,1.205c-0.373,0.509-0.64,1.103-0.798,1.783c-0.158,0.679-0.237,1.415-0.237,2.207v7.91H55.2
		v-17.553H59.783L59.783,128.657z"/>
</g>
<g>
	<path fill="#FFFFFF" d="M75.231,131.814c-0.77,0-1.415,0.176-1.935,0.526c-0.521,0.351-0.945,0.804-1.274,1.358
		c-0.328,0.555-0.56,1.166-0.696,1.834c-0.135,0.668-0.203,1.33-0.203,1.986c0,0.634,0.068,1.279,0.203,1.935
		c0.136,0.657,0.357,1.251,0.663,1.783c0.305,0.532,0.718,0.967,1.239,1.307c0.52,0.339,1.154,0.509,1.901,0.509
		c1.154,0,2.042-0.323,2.665-0.968c0.622-0.645,1.013-1.511,1.172-2.597h4.651c-0.317,2.331-1.222,4.108-2.716,5.33
		c-1.494,1.223-3.407,1.834-5.738,1.834c-1.313,0-2.518-0.221-3.616-0.662c-1.098-0.441-2.032-1.058-2.801-1.851
		c-0.77-0.792-1.37-1.737-1.799-2.834c-0.431-1.098-0.645-2.303-0.645-3.616c0-1.359,0.197-2.62,0.594-3.786
		c0.395-1.165,0.979-2.173,1.748-3.022c0.769-0.849,1.709-1.51,2.818-1.986c1.109-0.475,2.377-0.713,3.803-0.713
		c1.041,0,2.042,0.136,3.005,0.408c0.961,0.271,1.821,0.684,2.58,1.239c0.758,0.554,1.375,1.245,1.85,2.071
		c0.476,0.826,0.747,1.805,0.815,2.937h-4.719C78.479,132.822,77.29,131.814,75.231,131.814"/>
</g>
<g>
	<path fill="#FFFFFF" d="M89.49,121.968v9.133h0.102c0.611-1.018,1.392-1.76,2.343-2.224c0.95-0.464,1.878-0.696,2.784-0.696
		c1.29,0,2.347,0.176,3.174,0.526c0.826,0.352,1.477,0.838,1.952,1.46c0.476,0.623,0.809,1.381,1.002,2.275
		c0.192,0.895,0.289,1.884,0.289,2.971v10.797h-4.822v-9.914c0-1.449-0.226-2.53-0.679-3.243c-0.453-0.713-1.256-1.069-2.41-1.069
		c-1.313,0-2.264,0.39-2.852,1.171c-0.589,0.781-0.883,2.066-0.883,3.854v9.201h-4.821v-24.242H89.49z"/>
</g>
<g>
	<path fill="#FFFFFF" d="M113.121,128.657v3.226h-3.531v8.691c0,0.815,0.136,1.358,0.407,1.63c0.272,0.272,0.815,0.407,1.63,0.407
		c0.272,0,0.532-0.011,0.781-0.033c0.249-0.023,0.486-0.057,0.713-0.102v3.734c-0.407,0.068-0.86,0.113-1.358,0.136
		c-0.498,0.022-0.985,0.034-1.46,0.034c-0.747,0-1.455-0.051-2.122-0.153c-0.668-0.102-1.256-0.299-1.765-0.594
		c-0.51-0.294-0.912-0.713-1.206-1.256s-0.441-1.257-0.441-2.139v-10.355h-2.92v-3.226h2.92v-5.262h4.821v5.262H113.121z"/>
</g>
<g>
	<path fill="#FFFFFF" d="M118.417,139.505c0.136,0.667,0.368,1.267,0.696,1.799c0.328,0.532,0.764,0.956,1.307,1.273
		c0.543,0.317,1.223,0.475,2.037,0.475c0.815,0,1.499-0.158,2.054-0.475c0.555-0.317,0.996-0.741,1.325-1.273
		c0.327-0.532,0.559-1.132,0.695-1.799c0.136-0.668,0.204-1.353,0.204-2.054c0-0.702-0.068-1.393-0.204-2.071
		c-0.136-0.68-0.368-1.279-0.695-1.8c-0.329-0.521-0.77-0.945-1.325-1.273c-0.555-0.328-1.239-0.493-2.054-0.493
		c-0.814,0-1.494,0.165-2.037,0.493c-0.543,0.328-0.979,0.752-1.307,1.273c-0.328,0.521-0.56,1.12-0.696,1.8
		c-0.136,0.678-0.204,1.369-0.204,2.071C118.212,138.152,118.28,138.837,118.417,139.505 M114.036,133.631
		c0.43-1.143,1.041-2.116,1.834-2.92c0.792-0.803,1.742-1.426,2.851-1.867c1.109-0.442,2.354-0.663,3.735-0.663
		c1.38,0,2.631,0.221,3.752,0.663c1.12,0.441,2.077,1.064,2.87,1.867c0.791,0.804,1.402,1.777,1.832,2.92s0.646,2.416,0.646,3.82
		c0,1.403-0.216,2.67-0.646,3.802s-1.041,2.1-1.832,2.903c-0.793,0.804-1.75,1.421-2.87,1.85c-1.121,0.43-2.372,0.645-3.752,0.645
		c-1.381,0-2.626-0.215-3.735-0.645c-1.109-0.429-2.059-1.046-2.851-1.85c-0.793-0.803-1.404-1.771-1.834-2.903
		c-0.43-1.132-0.645-2.399-0.645-3.802C113.392,136.047,113.606,134.774,114.036,133.631"/>
</g>
<g>
	<path fill="#FFFFFF" d="M145.408,135.312c-0.16-0.679-0.408-1.278-0.748-1.799s-0.764-0.934-1.271-1.24
		c-0.51-0.305-1.127-0.458-1.852-0.458c-0.701,0-1.312,0.153-1.834,0.458c-0.521,0.306-0.949,0.719-1.289,1.24
		s-0.59,1.12-0.748,1.799s-0.236,1.392-0.236,2.139c0,0.725,0.078,1.426,0.236,2.105c0.158,0.679,0.408,1.279,0.748,1.799
		c0.34,0.521,0.77,0.934,1.289,1.24c0.521,0.305,1.133,0.458,1.834,0.458c0.725,0,1.342-0.153,1.852-0.458
		c0.509-0.306,0.933-0.719,1.271-1.24c0.34-0.52,0.588-1.12,0.748-1.799c0.157-0.679,0.237-1.38,0.237-2.105
		C145.646,136.703,145.565,135.99,145.408,135.312 M137.599,121.968v8.827h0.066c0.59-0.904,1.388-1.567,2.396-1.986
		c1.008-0.418,2.056-0.628,3.142-0.628c0.883,0,1.754,0.182,2.612,0.543c0.86,0.363,1.636,0.917,2.326,1.664
		c0.688,0.747,1.25,1.703,1.683,2.869c0.428,1.166,0.645,2.552,0.645,4.159s-0.217,2.994-0.645,4.159
		c-0.433,1.166-0.992,2.122-1.683,2.869s-1.466,1.302-2.326,1.664c-0.858,0.361-1.729,0.543-2.612,0.543
		c-1.291,0-2.445-0.204-3.463-0.611c-1.02-0.408-1.789-1.098-2.311-2.071h-0.067v2.241h-4.584v-24.242H137.599z"/>
</g>
<g>
	<path fill="#FFFFFF" d="M162.822,132.765c-0.576-0.633-1.451-0.95-2.627-0.95c-0.768,0-1.406,0.13-1.915,0.39
		c-0.508,0.26-0.915,0.583-1.22,0.968c-0.305,0.385-0.52,0.792-0.645,1.222s-0.197,0.815-0.222,1.154h7.83
		C163.798,134.327,163.398,133.399,162.822,132.765 M157.382,142c0.724,0.702,1.763,1.052,3.117,1.052
		c0.972,0,1.81-0.243,2.508-0.729c0.701-0.486,1.13-1.001,1.289-1.544h4.236c-0.678,2.105-1.718,3.61-3.117,4.515
		c-1.401,0.906-3.097,1.358-5.084,1.358c-1.379,0-2.623-0.221-3.729-0.661c-1.107-0.442-2.046-1.07-2.812-1.885
		c-0.768-0.815-1.361-1.788-1.779-2.92c-0.418-1.131-0.627-2.377-0.627-3.734c0-1.313,0.215-2.535,0.645-3.667
		c0.43-1.132,1.039-2.111,1.83-2.937c0.791-0.826,1.734-1.477,2.83-1.952c1.096-0.476,2.311-0.714,3.645-0.714
		c1.49,0,2.789,0.289,3.896,0.866c1.107,0.578,2.018,1.353,2.729,2.326c0.711,0.974,1.226,2.083,1.543,3.327
		c0.315,1.245,0.429,2.547,0.338,3.905h-12.643C156.264,140.166,156.658,141.299,157.382,142"/>
</g>
<g>
	<path fill="#FFFFFF" d="M174.47,128.657v3.26h0.066c0.228-0.544,0.531-1.047,0.918-1.511c0.383-0.464,0.826-0.86,1.323-1.189
		c0.497-0.327,1.029-0.582,1.597-0.763c0.564-0.182,1.153-0.272,1.766-0.272c0.316,0,0.667,0.056,1.052,0.17v4.481
		c-0.228-0.045-0.498-0.085-0.813-0.119c-0.316-0.034-0.623-0.051-0.916-0.051c-0.883,0-1.631,0.148-2.241,0.442
		c-0.611,0.294-1.103,0.696-1.478,1.205c-0.373,0.509-0.641,1.103-0.799,1.783c-0.156,0.679-0.236,1.415-0.236,2.207v7.91h-4.82
		v-17.553H174.47L174.47,128.657z"/>
</g>
<g>
	<polygon fill="none" points="48.611,190.129 60.607,190.129 85.076,190.129 97.076,190.129 121.541,190.129 133.541,190.129 
		158.005,190.129 170.001,190.129 194.471,190.129 206.471,190.129 230.001,190.129 230.001,116.129 26.002,116.129 26.002,190.129 
			"/>
	<polygon fill="#00AEEF" points="206.001,190.129 194.001,190.129 194.001,214.129 170.001,214.129 170.001,190.129 
		158.001,190.129 158.001,214.129 134.001,214.129 134.001,190.129 122.002,190.129 122.002,214.129 97.002,214.129 97.002,190.129 
		85.002,190.129 85.002,214.129 61.002,214.129 61.002,190.129 49.002,190.129 49.002,214.129 26.002,214.129 26.002,243.129 
		230.001,243.129 230.001,214.129 206.001,214.129 	"/>
	<path fill="#00AEEF" d="M243.001,190.129h-8v58h-4v19h-25v-19h-12v19h-24v-19h-12v19h-24v-19h-12v19h-25v-19h-12v19h-24v-19h-12v19
		h-25v-19h-4v-58h-8v24h-12v29h12v24h-12v29h12v24h-12v28h255v-28h-12v-24h12v-29h-12v-24h12v-29h-12V190.129z M49.002,320.129h-25
		v-24h25V320.129z M85.002,320.129h-24v-24h24V320.129z M122.002,320.129h-25v-24h25V320.129z M158.001,320.129h-24v-24h24V320.129z
		 M194.001,320.129h-24v-24h24V320.129z M231.001,320.129h-25v-24h25V320.129z"/>
	<path fill="#FFFFFF" d="M24.146,248.129h24.465h11.996h24.469h12h24.465h12h24.465h11.996h24.47h12h24.465h4.065v-58.13v-78.87
		h-215v78.87v58.13H24.146z M230.001,116.129v73.87v23.729v29.401h-204v-29.401v-23.729v-73.87H230.001z"/>
</g>
</svg>
