<?xml version="1.0" encoding="utf-8"?>
<!-- Generator: Adobe Illustrator 16.0.0, SVG Export Plug-In . SVG Version: 6.00 Build 0)  -->
<!DOCTYPE svg PUBLIC "-//W3C//DTD SVG 1.1//EN" "http://www.w3.org/Graphics/SVG/1.1/DTD/svg11.dtd">
<svg version="1.1" id="Layer_1" xmlns="http://www.w3.org/2000/svg" xmlns:xlink="http://www.w3.org/1999/xlink" x="0px" y="0px"
	 width="300px" height="300px" viewBox="-0.871 0 300 300" enable-background="new -0.871 0 300 300" xml:space="preserve">
<g>
	<path fill="#FFFFFF" d="M180.047,153.26c0-16.234-13.197-29.446-29.396-29.446s-29.389,13.212-29.389,29.446
		c0,16.248,13.19,29.445,29.389,29.445S180.047,169.508,180.047,153.26"/>
	<path fill="#FFFFFF" d="M211.752,45.377c0-4.562,3.713-8.304,8.289-8.304h25.59c4.547,0,8.274,3.742,8.274,8.304v25.646
		c0,4.562-3.728,8.29-8.274,8.29h-25.59c-4.576,0-8.289-3.728-8.289-8.29V45.377z M150.658,82.336
		c15.271,0,29.403,4.879,40.976,13.125h55.609h51.02V74.68c0-41.175-33.432-74.68-74.535-74.68H74.54
		C33.437,0-0.003,33.504-0.003,74.68v20.782h109.688C121.255,87.215,135.388,82.336,150.658,82.336"/>
	<path fill="#FFFFFF" d="M221.454,153.26c0,39.117-31.75,70.938-70.796,70.938c-39.038,0-70.808-31.82-70.808-70.938
		c0-10.766,2.432-20.984,6.734-30.137H0.003v102.211C0.003,266.51,33.443,300,74.54,300h149.172
		c41.104,0,74.537-33.49,74.537-74.666V123.123h-83.502C219.036,132.276,221.454,142.495,221.454,153.26"/>
</g>
</svg>
