<?xml version="1.0" encoding="utf-8"?>
<!-- Generator: Adobe Illustrator 16.0.0, SVG Export Plug-In . SVG Version: 6.00 Build 0)  -->
<!DOCTYPE svg PUBLIC "-//W3C//DTD SVG 1.1//EN" "http://www.w3.org/Graphics/SVG/1.1/DTD/svg11.dtd">
<svg version="1.1" id="Layer_1" xmlns="http://www.w3.org/2000/svg" xmlns:xlink="http://www.w3.org/1999/xlink" x="0px" y="0px"
	 width="298.259px" height="300px" viewBox="0 0 298.259 300" enable-background="new 0 0 298.259 300" xml:space="preserve">
<path fill="#FFFFFF" d="M180.043,153.26c0-16.234-13.197-29.446-29.396-29.446s-29.388,13.212-29.388,29.446
	c0,16.248,13.19,29.445,29.388,29.445S180.043,169.508,180.043,153.26"/>
<path fill="#FFFFFF" d="M211.748,45.377c0-4.562,3.714-8.304,8.29-8.304h25.589c4.548,0,8.275,3.742,8.275,8.304v25.646
	c0,4.562-3.728,8.29-8.275,8.29h-25.589c-4.576,0-8.29-3.728-8.29-8.29V45.377z M150.654,82.336
	c15.271,0,29.403,4.879,40.975,13.125h55.61h51.02V74.68c0-41.175-33.433-74.68-74.536-74.68H74.536
	C33.433,0-0.007,33.504-0.007,74.68v20.782h109.688C121.252,87.215,135.385,82.336,150.654,82.336"/>
<path fill="#FFFFFF" d="M221.449,153.26c0,39.117-31.749,70.938-70.795,70.938c-39.038,0-70.808-31.82-70.808-70.938
	c0-10.766,2.432-20.984,6.735-30.137H0v102.211C0,266.51,33.439,300,74.536,300h149.172c41.104,0,74.536-33.49,74.536-74.666
	V123.123h-83.502C219.031,132.276,221.449,142.495,221.449,153.26"/>
</svg>
