<?xml version="1.0" encoding="utf-8"?>
<!-- Generator: Adobe Illustrator 16.0.0, SVG Export Plug-In . SVG Version: 6.00 Build 0)  -->
<!DOCTYPE svg PUBLIC "-//W3C//DTD SVG 1.1//EN" "http://www.w3.org/Graphics/SVG/1.1/DTD/svg11.dtd">
<svg version="1.1" id="Layer_1" xmlns="http://www.w3.org/2000/svg" xmlns:xlink="http://www.w3.org/1999/xlink" x="0px" y="0px"
	 width="1081.371px" height="689.953px" viewBox="0 0 1081.371 689.953" enable-background="new 0 0 1081.371 689.953"
	 xml:space="preserve">
<g>
	<path fill="#FFFFFF" d="M25.698,25.699h1029.973v638.556H25.698V25.699z M0,689.953h1081.371V0H0V689.953z"/>
	<path fill="#FFFFFF" d="M127.025,128.446l-15.419-44.885h-0.341l-15.933,44.885H127.025z M125.484,53.408l45.743,122.323h-27.925
		l-9.252-27.24H88.308l-9.593,27.24h-27.07L97.902,53.408H125.484z"/>
	<g>
		<path fill="#FFFFFF" d="M198.467,87.158v16.448h0.343c1.141-2.741,2.681-5.282,4.626-7.625c1.941-2.339,4.168-4.34,6.68-5.995
			c2.513-1.655,5.197-2.939,8.054-3.855c2.853-0.914,5.825-1.372,8.909-1.372c1.598,0,3.367,0.287,5.31,0.858v22.615
			c-1.144-0.229-2.513-0.429-4.111-0.601c-1.6-0.172-3.144-0.257-4.626-0.257c-4.455,0-8.223,0.744-11.308,2.227
			c-3.082,1.485-5.567,3.512-7.451,6.082c-1.885,2.57-3.229,5.567-4.026,8.994c-0.801,3.427-1.2,7.141-1.2,11.137v39.917h-24.326
			V87.158H198.467z"/>
		<path fill="#FFFFFF" d="M276.417,103.092c-3.885,0-7.141,0.887-9.767,2.656c-2.627,1.771-4.769,4.055-6.425,6.851
			c-1.656,2.8-2.825,5.885-3.511,9.252c-0.687,3.371-1.027,6.711-1.027,10.022c0,3.199,0.341,6.455,1.027,9.766
			c0.686,3.315,1.798,6.312,3.341,8.995c1.542,2.686,3.625,4.881,6.254,6.596c2.624,1.712,5.824,2.568,9.592,2.568
			c5.825,0,10.307-1.627,13.45-4.881c3.139-3.256,5.108-7.625,5.91-13.106h23.47c-1.599,11.764-6.167,20.729-13.704,26.896
			c-7.539,6.167-17.191,9.252-28.954,9.252c-6.625,0-12.707-1.115-18.245-3.34c-5.542-2.228-10.253-5.339-14.135-9.338
			c-3.883-3.996-6.912-8.765-9.08-14.305c-2.171-5.54-3.255-11.622-3.255-18.247c0-6.853,0.998-13.219,2.999-19.102
			c1.995-5.881,4.938-10.965,8.822-15.248c3.881-4.283,8.622-7.623,14.221-10.021c5.594-2.398,11.991-3.6,19.188-3.6
			c5.252,0,10.306,0.688,15.161,2.058c4.853,1.37,9.192,3.455,13.021,6.254c3.825,2.799,6.938,6.282,9.336,10.45
			c2.398,4.17,3.771,9.109,4.111,14.819h-23.812C292.804,108.176,286.808,103.092,276.417,103.092"/>
		<path fill="#FFFFFF" d="M348.368,53.408v46.086h0.514c3.085-5.14,7.025-8.879,11.822-11.222c4.796-2.34,9.478-3.513,14.048-3.513
			c6.51,0,11.847,0.887,16.019,2.656c4.166,1.772,7.452,4.226,9.851,7.367c2.398,3.144,4.083,6.969,5.055,11.478
			c0.968,4.515,1.456,9.509,1.456,14.99v54.48h-24.329v-50.026c0-7.307-1.141-12.764-3.425-16.36
			c-2.286-3.597-6.339-5.396-12.163-5.396c-6.626,0-11.423,1.971-14.393,5.91c-2.972,3.94-4.454,10.423-4.454,19.445v46.427h-24.326
			V53.408H348.368z"/>
		<path fill="#FFFFFF" d="M467.605,87.158v16.276h-17.817v43.857c0,4.111,0.686,6.853,2.056,8.223
			c1.372,1.372,4.111,2.056,8.224,2.056c1.371,0,2.683-0.055,3.941-0.169c1.255-0.113,2.453-0.285,3.597-0.515v18.845
			c-2.056,0.343-4.342,0.57-6.853,0.686c-2.514,0.111-4.969,0.172-7.366,0.172c-3.77,0-7.34-0.257-10.707-0.771
			c-3.371-0.515-6.339-1.513-8.909-2.999c-2.57-1.483-4.599-3.598-6.082-6.339c-1.486-2.739-2.227-6.339-2.227-10.794v-52.251
			h-14.733V87.158h14.733V60.605h24.326v26.553H467.605z"/>
		<path fill="#FFFFFF" d="M494.329,141.896c0.686,3.368,1.854,6.396,3.511,9.081c1.657,2.683,3.856,4.823,6.596,6.424
			c2.742,1.6,6.17,2.396,10.281,2.396c4.112,0,7.563-0.797,10.365-2.396c2.796-1.601,5.022-3.741,6.682-6.424
			c1.654-2.685,2.825-5.713,3.511-9.081c0.687-3.367,1.029-6.824,1.029-10.365c0-3.54-0.343-7.024-1.029-10.45
			c-0.686-3.427-1.856-6.452-3.511-9.08c-1.659-2.627-3.886-4.769-6.682-6.425c-2.802-1.654-6.253-2.484-10.365-2.484
			c-4.111,0-7.539,0.83-10.281,2.484c-2.739,1.656-4.938,3.798-6.596,6.425c-1.656,2.628-2.825,5.653-3.511,9.08
			c-0.687,3.426-1.027,6.91-1.027,10.45C493.302,135.072,493.643,138.529,494.329,141.896 M472.228,112.258
			c2.169-5.766,5.254-10.678,9.252-14.732c3.997-4.054,8.794-7.197,14.391-9.424c5.597-2.228,11.879-3.343,18.847-3.343
			c6.964,0,13.276,1.115,18.931,3.343c5.653,2.227,10.477,5.37,14.477,9.424c3.996,4.055,7.08,8.967,9.252,14.732
			c2.166,5.769,3.254,12.192,3.254,19.273c0,7.084-1.088,13.477-3.254,19.188c-2.172,5.712-5.256,10.596-9.252,14.648
			c-4,4.055-8.824,7.169-14.477,9.335c-5.654,2.169-11.967,3.256-18.931,3.256c-6.968,0-13.25-1.087-18.847-3.256
			c-5.597-2.166-10.394-5.28-14.391-9.335c-3.998-4.053-7.083-8.937-9.252-14.648c-2.171-5.711-3.254-12.104-3.254-19.188
			C468.974,124.45,470.057,118.026,472.228,112.258"/>
		<path fill="#FFFFFF" d="M630.529,120.738c-0.801-3.428-2.057-6.452-3.77-9.081c-1.715-2.626-3.857-4.711-6.426-6.253
			c-2.57-1.541-5.684-2.312-9.336-2.312c-3.541,0-6.627,0.771-9.252,2.312c-2.629,1.542-4.797,3.627-6.512,6.253
			c-1.711,2.629-2.969,5.653-3.768,9.081c-0.801,3.425-1.197,7.022-1.197,10.793c0,3.656,0.396,7.194,1.197,10.622
			c0.799,3.425,2.057,6.453,3.768,9.078c1.715,2.629,3.883,4.712,6.512,6.255c2.625,1.542,5.711,2.312,9.252,2.312
			c3.652,0,6.766-0.77,9.336-2.312c2.568-1.543,4.711-3.626,6.426-6.255c1.713-2.625,2.969-5.653,3.77-9.078
			c0.795-3.428,1.197-6.966,1.197-10.622C631.726,127.761,631.324,124.163,630.529,120.738 M591.123,53.408v44.543h0.344
			c2.971-4.564,6.996-7.907,12.078-10.021c5.08-2.112,10.365-3.17,15.846-3.17c4.455,0,8.852,0.916,13.193,2.742
			c4.338,1.826,8.25,4.626,11.734,8.394c3.484,3.771,6.309,8.595,8.482,14.479c2.166,5.883,3.254,12.879,3.254,20.985
			c0,8.111-1.088,15.106-3.254,20.987c-2.174,5.883-4.998,10.707-8.482,14.476s-7.396,6.569-11.734,8.395
			c-4.342,1.826-8.738,2.742-13.193,2.742c-6.51,0-12.334-1.029-17.475-3.085c-5.137-2.056-9.023-5.537-11.646-10.45h-0.344v11.308
			h-23.129V53.408H591.123z"/>
		<path fill="#FFFFFF" d="M718.402,107.889c-2.908-3.197-7.328-4.797-13.256-4.797c-3.877,0-7.098,0.659-9.664,1.97
			c-2.562,1.313-4.615,2.942-6.156,4.884c-1.539,1.942-2.623,3.999-3.248,6.168c-0.629,2.17-1,4.11-1.113,5.823h39.508
			C723.33,115.769,721.306,111.087,718.402,107.889 M690.953,154.488c3.646,3.541,8.891,5.31,15.732,5.31
			c4.902,0,9.121-1.226,12.654-3.683c3.533-2.455,5.701-5.054,6.5-7.794h21.379c-3.42,10.62-8.666,18.217-15.732,22.783
			c-7.072,4.57-15.623,6.854-25.654,6.854c-6.957,0-13.229-1.115-18.814-3.34c-5.588-2.228-10.32-5.398-14.195-9.51
			c-3.877-4.111-6.871-9.021-8.979-14.733c-2.111-5.709-3.164-11.993-3.164-18.844c0-6.624,1.082-12.791,3.25-18.504
			c2.164-5.709,5.244-10.649,9.234-14.819c3.99-4.168,8.75-7.452,14.281-9.851c5.527-2.398,11.656-3.6,18.387-3.6
			c7.523,0,14.078,1.458,19.666,4.369c5.586,2.913,10.178,6.826,13.768,11.737c3.592,4.911,6.186,10.508,7.781,16.789
			s2.166,12.849,1.711,19.701h-63.793C685.306,145.236,687.3,150.949,690.953,154.488"/>
		<path fill="#FFFFFF" d="M777.173,87.158v16.448h0.344c1.141-2.741,2.682-5.282,4.627-7.625c1.939-2.339,4.168-4.34,6.68-5.995
			c2.51-1.655,5.195-2.939,8.053-3.855c2.854-0.914,5.824-1.372,8.908-1.372c1.598,0,3.367,0.287,5.311,0.858v22.615
			c-1.145-0.229-2.514-0.429-4.111-0.601c-1.6-0.172-3.145-0.257-4.625-0.257c-4.455,0-8.225,0.744-11.309,2.227
			c-3.082,1.485-5.566,3.512-7.451,6.082s-3.23,5.567-4.025,8.994c-0.801,3.427-1.201,7.141-1.201,11.137v39.917h-24.326V87.158
			H777.173z"/>
	</g>
</g>
</svg>
