<?xml version="1.0" encoding="utf-8"?>
<!-- Generator: Adobe Illustrator 16.0.0, SVG Export Plug-In . SVG Version: 6.00 Build 0)  -->
<!DOCTYPE svg PUBLIC "-//W3C//DTD SVG 1.1//EN" "http://www.w3.org/Graphics/SVG/1.1/DTD/svg11.dtd">
<svg version="1.1" id="Layer_1" xmlns="http://www.w3.org/2000/svg" xmlns:xlink="http://www.w3.org/1999/xlink" x="0px" y="0px"
	 width="369.23px" height="300px" viewBox="0 0 369.23 300" enable-background="new 0 0 369.23 300" xml:space="preserve">
<path fill="#FFFFFF" d="M369.23,35.455c-13.622,6.01-28.184,10.286-43.553,11.96c15.811-9.374,27.742-24.303,33.341-41.892
	c-14.548,8.552-30.799,14.958-47.888,18.412C296.996,9.388,277.409,0,255.588,0c-41.906,0-75.694,33.722-75.694,75.627
	c0,6.01,0.434,11.932,1.734,17.53C118.835,89.764,63.256,61.125,25.655,15.369c-6.429,11.153-10.278,22.672-10.278,36.764
	c0,26.081,13.239,49.15,33.81,62.815c-12.445-0.441-24.017-3.85-34.214-9.374v0.822c0,36.792,26.059,67.561,60.678,74.394
	c-6.392,1.66-13.254,2.542-20.086,2.542c-4.709,0-9.389-0.427-14.083-1.278c9.375,29.901,37.586,52.147,70.493,52.544
	c-25.656,20.527-58.51,35.941-94.01,35.941c-5.988,0-12.005-0.427-17.963-1.293C33.34,290.61,73.534,300,116.249,300
	c139.339,0,215.365-115.374,215.365-215.38v-9.845C346.161,64.108,359.018,50.84,369.23,35.455"/>
</svg>
