<?xml version="1.0" encoding="utf-8"?>
<!-- Generator: Adobe Illustrator 16.0.0, SVG Export Plug-In . SVG Version: 6.00 Build 0)  -->
<!DOCTYPE svg PUBLIC "-//W3C//DTD SVG 1.1//EN" "http://www.w3.org/Graphics/SVG/1.1/DTD/svg11.dtd">
<svg version="1.1" id="Layer_1" xmlns="http://www.w3.org/2000/svg" xmlns:xlink="http://www.w3.org/1999/xlink" x="0px" y="0px"
	 width="369.228px" height="300px" viewBox="-34.614 0 369.228 300" enable-background="new -34.614 0 369.228 300"
	 xml:space="preserve">
<path fill="#FFFFFF" d="M334.614,35.456c-13.623,6.009-28.186,10.285-43.556,11.96c15.812-9.374,27.743-24.304,33.344-41.893
	c-14.548,8.553-30.8,14.958-47.889,18.412C262.38,9.389,242.793,0,220.971,0c-41.906,0-75.692,33.723-75.692,75.626
	c0,6.012,0.434,11.933,1.733,17.531C84.218,89.764,28.639,61.125-8.961,15.37C-15.39,26.522-19.24,38.042-19.24,52.134
	c0,26.081,13.239,49.15,33.811,62.815c-12.446-0.442-24.017-3.85-34.214-9.375v0.821c0,36.794,26.06,67.562,60.678,74.394
	c-6.393,1.661-13.254,2.541-20.086,2.541c-4.708,0-9.39-0.428-14.083-1.276c9.375,29.9,37.586,52.146,70.493,52.543
	c-25.656,20.527-58.51,35.939-94.01,35.939c-5.986,0-12.005-0.428-17.962-1.293C-1.276,290.609,38.917,300,81.632,300
	c139.338,0,215.364-115.374,215.364-215.38v-9.845C311.544,64.107,324.402,50.84,334.614,35.456"/>
</svg>
